<svg width="47" height="53" viewBox="0 0 47 53" fill="none" xmlns="http://www.w3.org/2000/svg">
<path d="M35.1531 17.4415L27.1586 25.3813L3.68933 1.48763C4.86659 0.779793 6.40052 0.667311 7.75777 1.45746L35.1531 17.4415Z" fill="white"/>
<path d="M35.3487 36.306L7.75745 52.4053C6.10747 53.3683 4.19576 52.9924 2.98255 51.8346L27.1575 27.9409L35.3487 36.306Z" fill="white"/>
<path d="M44.6008 30.3775L36.6905 34.9922L36.628 35.0278L28.4373 26.6627L36.4318 18.7201L36.4938 18.7585L44.6008 23.4884C47.2382 25.0248 47.2382 28.8383 44.6008 30.3775Z" fill="white"/>
<path d="M1.70349 50.5562C1.68676 50.5397 1.67003 50.5232 1.65329 50.5068C0.939963 49.8044 0.480965 48.8222 0.480965 47.6809V6.18173C0.480965 4.70295 1.25273 3.49029 2.34933 2.80439C2.36963 2.79068 2.38966 2.77971 2.40996 2.76599L25.8792 26.6624L1.70349 50.5562Z" fill="white"/>
</svg>
